<svg width="17" height="17" viewBox="0 0 17 17" fill="none" xmlns="http://www.w3.org/2000/svg">
<path d="M6 5.99983C6.36375 4.96483 7.9185 4.31392 9 4.49992C10.0815 4.68517 11.0015 5.40263 11 6.49988C11 7.99988 8.5 8.99988 8.5 8.99988" stroke="#7749F8" stroke-width="1.5" stroke-linecap="round" stroke-linejoin="round"/>
<path fill-rule="evenodd" clip-rule="evenodd" d="M8.5 16C12.6422 16 16 12.6422 16 8.5C16 4.35775 12.6422 1 8.5 1C4.35775 1 1 4.35775 1 8.5C1 12.6422 4.35775 16 8.5 16Z" stroke="#7749F8" stroke-width="1.5" stroke-linecap="round" stroke-linejoin="round"/>
<path d="M8.5 13C8.91421 13 9.25 12.6642 9.25 12.25C9.25 11.8358 8.91421 11.5 8.5 11.5C8.08579 11.5 7.75 11.8358 7.75 12.25C7.75 12.6642 8.08579 13 8.5 13Z" fill="#7749F8"/>
</svg>
