<svg width="24" height="24" viewBox="0 0 24 24" fill="none" xmlns="http://www.w3.org/2000/svg">
<path fill-rule="evenodd" clip-rule="evenodd" d="M4 5.77778C4 4.79556 4.79556 4 5.77778 4H18.2222C19.2044 4 20 4.79556 20 5.77778V18.2222C20 19.2044 19.2044 20 18.2222 20H5.77778C4.79556 20 4 19.2044 4 18.2222V5.77778Z" stroke="#6610F2" stroke-width="1.5" stroke-linecap="round" stroke-linejoin="round"/>
<path fill-rule="evenodd" clip-rule="evenodd" d="M8.5 9C8.776 9 9 8.776 9 8.5C9 8.224 8.776 8 8.5 8C8.224 8 8 8.224 8 8.5C8 8.776 8.224 9 8.5 9Z" stroke="#6610F2" stroke-width="1.5" stroke-linecap="round" stroke-linejoin="round"/>
<path d="M20 14L15.9375 9L7 20" stroke="#6610F2" stroke-width="1.5" stroke-linecap="round" stroke-linejoin="round"/>
</svg>
